<?xml version="1.0" encoding="utf-8"?>
<!-- Generator: Adobe Illustrator 25.0.1, SVG Export Plug-In . SVG Version: 6.00 Build 0)  -->
<svg version="1.1" id="Layer_1" xmlns="http://www.w3.org/2000/svg" xmlns:xlink="http://www.w3.org/1999/xlink" x="0px" y="0px"
	 viewBox="0 0 369 105" style="enable-background:new 0 0 369 105;" xml:space="preserve">
<style type="text/css">
	.st0{fill-rule:evenodd;clip-rule:evenodd;fill:#E10600;}
</style>
<path class="st0" d="M307.3,98.1h1.9v-8.7h0l3.1,8.7h1.6l3.1-8.7h0v8.7h1.9V86.9h-2.7l-3,8.8h0l-3.1-8.8h-2.8V98.1z M296.9,88.6h3.6
	v9.5h2v-9.5h3.6v-1.7h-9.1V88.6z M274,98.1l90-90h-54.2l-90,90L274,98.1L274,98.1z M261.1,47.3H152.1c-33.2,0-39,1.8-53.2,16
	C85.6,76.6,64,98.1,64,98.1h47.2l11.3-11.3c7.4-7.4,11.2-8.2,26.8-8.2h80.5L261.1,47.3L261.1,47.3L261.1,47.3z M97.5,56.9
	c-9.8,9.3-31.2,30-42.7,41.2H4c0,0,40.7-40.5,63.3-62.8c23.3-22.2,34.9-27.2,77.6-27.2h155.4l-33.7,33.7H148
	C118,41.8,111.3,43.8,97.5,56.9L97.5,56.9z"/>
</svg>
